# File created by Blade
# Date/Time:  Wed Apr 08 17:31:45 2015
#---------------------------------------------------------
:version 1.10
:name HOM
:units
  mass 1.0
  length 1.000000
  angle deg
:documentation
     Acclaim Skeleton File
:root
   axis xyz
   order TX TY TZ RX RY RZ
   position 0.000000 0.000000 0.000000
   orientation 0 0 0
:bonedata
   begin
      id 1
      name Spine_dum
      direction 0.000000 1.000000 0.000000
      length 5.893853
      axis 0.0 0.0 0.0 xyz
   end
   begin
      id 2
      name LeftUpLeg_dum
      direction 1.000000 0.000000 0.000000
      length 3.697939
      axis 0.0 0.0 0.0 xyz
   end
   begin
      id 3
      name RightUpLeg_dum
      direction -1.000000 0.000000 0.000000
      length 3.697939
      axis 0.0 0.0 0.0 xyz
   end
   begin
      id 4
      name Spine
      direction 0.000000 1.000000 0.000000
      length 0.000000
      axis 0.0 0.0 0.0 xyz
      dof rx ry rz
   end
   begin
      id 5
      name Spine_dum1
      direction 0.000000 1.000000 0.000000
      length 16.447146
      axis 0.0 0.0 0.0 xyz
   end
   begin
      id 6
      name Spine_dum2
      direction 0.000000 1.000000 0.000000
      length 10.900383
      axis 0.0 0.0 0.0 xyz
   end
   begin
      id 7
      name Spine_dum3
      direction 0.000000 1.000000 0.000000
      length 10.900383
      axis 0.0 0.0 0.0 xyz
   end
   begin
      id 8
      name Head
      direction 0.000000 1.000000 0.000000
      length 4.527550
      axis 0.0 0.0 0.0 xyz
      dof rx ry rz
   end
   begin
      id 9
      name LeftShoulder
      direction 1.000000 0.000000 0.000000
      length 8.219464
      axis 0.0 0.0 -90.0 xyz
      dof rx ry rz
   end
   begin
      id 10
      name LeftArm
      direction 1.000000 0.000000 0.000000
      length 11.094937
      axis 0.0 0.0 -90.0 xyz
      dof rx ry rz
   end
   begin
      id 11
      name LeftForeArm
      direction 1.000000 0.000000 0.000000
      length 9.103875
      axis 0.0 0.0 -90.0 xyz
      dof ry rz rx
   end
   begin
      id 12
      name LeftHand
      direction 0.000000 0.000000 0.000000
      length 0.000000
      axis 0.0 0.0 -90.0 xyz
      dof rx ry rz
   end
   begin
      id 13
      name LeftHand_dum1
      direction 0.000000 0.000000 0.000000
      length 0.000000
      axis 0.0 0.0 -90.0 xyz
   end
   begin
      id 14
      name LeftHand_dum2
      direction 1.000000 0.000000 0.000000
      length 3.937000
      axis 0.0 0.0 -90.0 xyz
   end
   begin
      id 15
      name LeftHandThumb1
      direction 0.000000 0.000000 1.000000
      length 3.937000
      axis 0.0 0.0 -90.0 xyz
      dof rx rz ry
   end
   begin
      id 16
      name RightShoulder
      direction -1.000000 0.000000 0.000000
      length 8.219464
      axis 0.0 0.0 90.0 xyz
      dof rx ry rz
   end
   begin
      id 17
      name RightArm
      direction -1.000000 0.000000 0.000000
      length 11.094937
      axis 0.0 0.0 90.0 xyz
      dof rx ry rz
   end
   begin
      id 18
      name RightForeArm
      direction -1.000000 0.000000 0.000000
      length 9.103875
      axis 0.0 0.0 90.0 xyz
      dof ry rz rx
   end
   begin
      id 19
      name RightHand
      direction 0.000000 0.000000 0.000000
      length 0.000000
      axis 0.0 0.0 90.0 xyz
      dof rx ry rz
   end
   begin
      id 20
      name RightHand_dum1
      direction 0.000000 0.000000 0.000000
      length 0.000000
      axis 0.0 0.0 90.0 xyz
   end
   begin
      id 21
      name RightHand_dum2
      direction -1.000000 0.000000 0.000000
      length 3.937000
      axis 0.0 0.0 90.0 xyz
   end
   begin
      id 22
      name RightHandThumb1
      direction 0.000000 0.000000 1.000000
      length 3.937000
      axis 0.0 0.0 90.0 xyz
      dof rx rz ry
   end
   begin
      id 23
      name LeftUpLeg
      direction 0.000000 -1.000000 0.000000
      length 16.181467
      axis 0.0 0.0 0.0 xyz
      dof rx ry rz
   end
   begin
      id 24
      name LeftLeg
      direction 0.000000 -1.000000 0.000000
      length 16.501392
      axis 0.0 0.0 0.0 xyz
      dof rx ry rz
   end
   begin
      id 25
      name LeftFoot
      direction 0.000000 -0.258819 0.965926
      length 6.408245
      axis 15.0 0.0 0.0 xyz
      dof rx ry rz
   end
   begin
      id 26
      name LeftToeBase
      direction 0.000000 0.000000 1.000000
      length 2.952750
      axis 0.0 0.0 0.0 xyz
      dof rx ry rz
   end
   begin
      id 27
      name RightUpLeg
      direction 0.000000 -1.000000 0.000000
      length 16.181467
      axis 0.0 0.0 0.0 xyz
      dof rx ry rz
   end
   begin
      id 28
      name RightLeg
      direction 0.000000 -1.000000 0.000000
      length 16.501392
      axis 0.0 0.0 0.0 xyz
      dof rx ry rz
   end
   begin
      id 29
      name RightFoot
      direction 0.000000 -0.258819 0.965926
      length 6.408245
      axis 15.0 0.0 0.0 xyz
      dof rx ry rz
   end
   begin
      id 30
      name RightToeBase
      direction 0.000000 0.000000 1.000000
      length 2.952750
      axis 0.0 0.0 0.0 xyz
      dof rx ry rz
   end
:hierarchy
   begin
      root Spine_dum LeftUpLeg_dum RightUpLeg_dum
      Spine_dum Spine
      LeftUpLeg_dum LeftUpLeg
      RightUpLeg_dum RightUpLeg
      Spine Spine_dum1 Spine_dum2 Spine_dum3
      Spine_dum1 Head
      Spine_dum2 LeftShoulder
      Spine_dum3 RightShoulder
      LeftShoulder LeftArm
      LeftArm LeftForeArm
      LeftForeArm LeftHand
      LeftHand LeftHand_dum1 LeftHand_dum2
      LeftHand_dum1 LeftHandThumb1
      RightShoulder RightArm
      RightArm RightForeArm
      RightForeArm RightHand
      RightHand RightHand_dum1 RightHand_dum2
      RightHand_dum1 RightHandThumb1
      LeftUpLeg LeftLeg
      LeftLeg LeftFoot
      LeftFoot LeftToeBase
      RightUpLeg RightLeg
      RightLeg RightFoot
      RightFoot RightToeBase
   end

# File created by Blade
# Date/Time:  Wed Apr 08 17:31:39 2015
# Frame Rate: 120.000 fps
#------------------------------------------------------
:FULLY-SPECIFIED
:DEGREES
331
root 11.338620 19.338294 -0.829632 -539.864454 -88.723863 332.222209
Spine 237.206840 1.694107 -0.565635
Head 22.703852 12.290041 4.474755
LeftShoulder 14.225523 -5.257916 40.853053
LeftArm 54.280856 -13.530680 -29.959925
LeftForeArm 28.221064 -0.000000 18.667723
LeftHand -4.683101 -0.000000 -9.555918
LeftHandThumb1 -26.253704 0.000000 33.147579
RightShoulder 8.280080 -21.748476 -47.692354
RightArm 75.783676 27.733876 33.588369
RightForeArm -8.724973 0.000000 21.389380
RightHand 4.128609 -0.000000 7.163202
RightHandThumb1 -24.326973 -0.000000 -32.862282
LeftUpLeg 124.511117 -9.468845 -11.231495
LeftLeg 114.253328 -0.000000 -0.000000
LeftFoot -33.228335 9.070058 -3.921249
LeftToeBase 2.252543 -0.000000 -0.000000
RightUpLeg 127.938734 15.717939 11.286243
RightLeg 115.742613 -0.000000 -0.000000
RightFoot -39.773382 -1.640033 3.593805
RightToeBase 4.299381 -0.000000 -0.000000
332
root 11.381593 19.376220 -0.820581 -537.941739 -88.793536 330.271529
Spine 237.269651 1.679995 -0.556193
Head 22.499492 12.382573 4.418315
LeftShoulder 14.205798 -5.142590 40.873852
LeftArm 54.019916 -13.867090 -29.657905
LeftForeArm 28.009483 0.000000 18.622100
LeftHand -4.710851 -0.000000 -9.623662
LeftHandThumb1 -26.253704 0.000000 33.147579
RightShoulder 8.238845 -21.624764 -47.706468
RightArm 75.968159 27.837148 33.794579
RightForeArm -8.798808 -0.000000 21.142049
RightHand 3.941970 -0.000000 7.581714
RightHandThumb1 -24.326973 -0.000000 -32.862282
LeftUpLeg 124.600893 -9.506063 -11.214517
LeftLeg 114.061842 -0.000000 -0.000000
LeftFoot -33.130842 9.153730 -4.026898
LeftToeBase 2.104560 -0.000000 -0.000000
RightUpLeg 128.009899 15.701592 11.248863
RightLeg 115.513943 -0.000000 -0.000000
RightFoot -39.700809 -1.510406 3.591482
RightToeBase 4.215912 -0.000000 -0.000000
333
root 11.418108 19.410692 -0.812811 -535.386520 -88.876843 327.734721
Spine 237.268365 1.639255 -0.533421
Head 22.356352 12.491968 4.419564
LeftShoulder 14.166339 -4.939243 40.887650
LeftArm 53.811016 -14.197262 -29.235593
LeftForeArm 28.129632 -0.000000 18.450757
LeftHand -4.672813 -0.000000 -9.463457
LeftHandThumb1 -26.253704 0.000000 33.147579
RightShoulder 8.246674 -21.519406 -47.713116
RightArm 76.141996 27.986761 34.092784
RightForeArm -9.078793 0.000000 20.965508
RightHand 3.700344 0.000000 7.935396
RightHandThumb1 -24.326973 -0.000000 -32.862282
LeftUpLeg 124.652766 -9.565976 -11.201725
LeftLeg 113.888262 -0.000000 -0.000000
LeftFoot -33.048494 9.238954 -4.051752
LeftToeBase 1.954354 -0.000000 -0.000000
RightUpLeg 128.021157 15.695013 11.188425
RightLeg 115.316255 -0.000000 -0.000000
RightFoot -39.629133 -1.443685 3.535581
RightToeBase 4.125458 -0.000000 -0.000000
334
root 11.453627 19.441374 -0.801747 -533.128180 -88.929077 325.506875
Spine 237.260996 1.642579 -0.537025
Head 22.226591 12.565481 4.322424
LeftShoulder 14.127581 -4.769534 40.944501
LeftArm 53.608847 -14.596236 -29.055434
LeftForeArm 28.499590 -0.000000 18.242955
LeftHand -4.721476 -0.000000 -9.259517
LeftHandThumb1 -26.253704 0.000000 33.147579
RightShoulder 8.208924 -21.439343 -47.719348
RightArm 76.302910 28.142050 34.316175
RightForeArm -9.282952 0.000000 20.822668
RightHand 3.586770 -0.000000 8.065061
RightHandThumb1 -24.326973 -0.000000 -32.862282
LeftUpLeg 124.676776 -9.595427 -11.173043
LeftLeg 113.727550 -0.000000 -0.000000
LeftFoot -32.983616 9.291366 -4.042519
LeftToeBase 1.919076 -0.000000 -0.000000
RightUpLeg 128.024004 15.753842 11.149254
RightLeg 115.128290 -0.000000 -0.000000
RightFoot -39.561998 -1.382893 3.436810
RightToeBase 3.999487 -0.000000 -0.000000
335
root 11.491782 19.463190 -0.792080 -530.828798 -89.001833 323.166628
Spine 237.310770 1.606828 -0.543962
Head 22.095809 12.591328 4.235745
LeftShoulder 14.098880 -4.571763 40.925009
LeftArm 53.446048 -15.057268 -28.811617
LeftForeArm 28.789094 -0.000000 18.015287
LeftHand -4.810082 -0.000000 -9.179063
LeftHandThumb1 -26.253704 0.000000 33.147579
RightShoulder 8.174200 -21.272112 -47.702960
RightArm 76.326044 28.209158 34.479968
RightForeArm -9.532054 -0.000000 20.737611
RightHand 3.411001 -0.000000 8.303641
RightHandThumb1 -24.326973 -0.000000 -32.862282
LeftUpLeg 124.750280 -9.653105 -11.154587
LeftLeg 113.595143 -0.000000 -0.000000
LeftFoot -32.912013 9.320086 -4.038648
LeftToeBase 1.806779 -0.000000 -0.000000
RightUpLeg 128.047528 15.758253 11.121218
RightLeg 114.974545 -0.000000 -0.000000
RightFoot -39.473854 -1.300745 3.345135
RightToeBase 3.875896 -0.000000 -0.000000
336
root 11.517737 19.476601 -0.790862 -520.477226 -89.025958 313.295081
Spine 236.845600 1.757849 -0.746915
Head 21.930535 12.883892 3.492811
LeftShoulder 15.039361 -5.402574 41.690143
LeftArm 50.719066 -15.680039 -30.364500
LeftForeArm 29.848391 0.000000 19.568582
LeftHand -5.513133 -0.000000 -9.302389
LeftHandThumb1 -26.253704 0.000000 33.147579
RightShoulder 8.259963 -21.159127 -48.349395
RightArm 76.574297 28.356999 35.099195
RightForeArm -9.658323 0.000000 20.585549
RightHand 3.324564 -0.000000 8.345097
RightHandThumb1 -24.326973 -0.000000 -32.862282
LeftUpLeg 124.268724 -9.841514 -11.222816
LeftLeg 113.546699 -0.000000 -0.000000
LeftFoot -32.864941 9.302179 -4.044787
LeftToeBase 1.662476 -0.000000 -0.000000
RightUpLeg 127.549939 15.854925 10.807990
RightLeg 114.844930 -0.000000 -0.000000
RightFoot -39.418647 -1.244436 3.251583
RightToeBase 3.791666 -0.000000 -0.000000
337
root 11.548855 19.485773 -0.783562 -516.045627 -89.055054 308.799321
Spine 236.879844 1.705333 -0.807946
Head 21.860532 12.892190 3.414920
LeftShoulder 15.100088 -5.619072 41.766430
LeftArm 50.379838 -16.137817 -30.848659
LeftForeArm 30.478754 -0.000000 19.418671
LeftHand -5.746110 -0.000000 -9.421251
LeftHandThumb1 -26.253704 0.000000 33.147579
RightShoulder 8.212026 -21.042539 -48.305078
RightArm 76.601545 28.394998 35.290255
RightForeArm -9.866828 -0.000000 20.529860
RightHand 3.202346 -0.000000 8.287385
RightHandThumb1 -24.326973 -0.000000 -32.862282
LeftUpLeg 124.315804 -9.888512 -11.259476
LeftLeg 113.475601 -0.000000 -0.000000
LeftFoot -32.799945 9.311152 -4.060512
LeftToeBase 1.666844 -0.000000 -0.000000
RightUpLeg 127.571885 15.857652 10.756798
RightLeg 114.741740 -0.000000 -0.000000
RightFoot -39.341914 -1.186570 3.162639
RightToeBase 3.713727 -0.000000 -0.000000
338
root 11.578601 19.496698 -0.776746 -511.001166 -89.118846 303.747680
Spine 236.877919 1.601746 -0.876486
Head 21.771646 12.917217 3.343418
LeftShoulder 15.128399 -5.485336 41.717207
LeftArm 50.215299 -16.651158 -30.731998
LeftForeArm 30.536207 0.000000 19.170107
LeftHand -6.063452 -0.000000 -9.282426
LeftHandThumb1 -26.253704 0.000000 33.147579
RightShoulder 8.143229 -21.049068 -48.234820
RightArm 76.646468 28.531228 35.413095
RightForeArm -9.924538 -0.000000 20.484901
RightHand 3.225049 -0.000000 8.096208
RightHandThumb1 -24.326973 -0.000000 -32.862282
LeftUpLeg 124.333781 -10.010646 -11.272920
LeftLeg 113.396046 -0.000000 -0.000000
LeftFoot -32.753400 9.302988 -4.048699
LeftToeBase 1.652334 -0.000000 -0.000000
RightUpLeg 127.533232 15.851194 10.700352
RightLeg 114.630114 -0.000000 -0.000000
RightFoot -39.275852 -1.173595 3.047786
RightToeBase 3.619805 -0.000000 -0.000000
